<svg xmlns="http://www.w3.org/2000/svg" viewBox="0 0 430 100" fill="none" role="img" aria-label="British International School of Tbilisi">
  <g fill="#D4A03A">
    <path d="M20 31 L28 14 L36 27 L44 14 L52 27 L60 14 L68 31 Z"/>
    <rect x="18" y="29" width="52" height="6" rx="2"/>
    <path d="M22 38 H66 V63 C66 81 44 93 44 93 C44 93 22 81 22 63 Z"/>
  </g>
  <g fill="#0B0D10">
    <rect x="42.8" y="40" width="2.4" height="46"/>
    <rect x="28" y="56" width="3.2" height="6"/><rect x="32.4" y="56" width="3.2" height="6"/><rect x="36.8" y="56" width="3.2" height="6"/><rect x="28" y="61" width="12" height="2.4"/>
    <rect x="49" y="56" width="3.2" height="6"/><rect x="53.4" y="56" width="3.2" height="6"/><rect x="57.8" y="56" width="3.2" height="6"/><rect x="49" y="61" width="12" height="2.4"/>
  </g>
  <text x="96" y="47" font-family="Georgia, 'Times New Roman', serif" font-size="31" font-weight="600" letter-spacing="0.3" fill="#D4A03A">British International</text>
  <text x="96" y="85" font-family="Georgia, 'Times New Roman', serif" font-size="31" font-weight="600" letter-spacing="0.3" fill="#D4A03A">School of Tbilisi</text>
</svg>
